<mxfile host="app.diagrams.net" modified="2024-04-22T20:28:02.970Z" agent="Mozilla/5.0 (Windows NT 10.0; Win64; x64) AppleWebKit/537.36 (KHTML, like Gecko) Chrome/122.0.0.0 Safari/537.36" etag="K3iR0qlMMk3Z5k1TUO7v" version="24.2.3" type="github">
  <diagram name="Page-1" id="KozQ10dQBtMu_M47XATJ">
    <mxGraphModel dx="1586" dy="708" grid="1" gridSize="10" guides="1" tooltips="1" connect="1" arrows="1" fold="1" page="1" pageScale="1" pageWidth="850" pageHeight="1100" math="0" shadow="0">
      <root>
        <mxCell id="0" />
        <mxCell id="1" parent="0" />
        <mxCell id="T5i98AoBgZPl8uVs_3dz-3" value="" style="rounded=1;whiteSpace=wrap;html=1;" parent="1" vertex="1">
          <mxGeometry x="352.5" y="80" width="120" height="60" as="geometry" />
        </mxCell>
        <mxCell id="DMgC11dC9DH33_88w0CI-2" value="Start" style="text;strokeColor=none;align=center;fillColor=none;html=1;verticalAlign=middle;whiteSpace=wrap;rounded=0;" parent="1" vertex="1">
          <mxGeometry x="382.5" y="95" width="60" height="30" as="geometry" />
        </mxCell>
        <mxCell id="T5i98AoBgZPl8uVs_3dz-5" value="" style="endArrow=classic;html=1;rounded=0;exitX=0.5;exitY=1;exitDx=0;exitDy=0;exitPerimeter=0;" parent="1" source="T5i98AoBgZPl8uVs_3dz-3" edge="1">
          <mxGeometry width="50" height="50" relative="1" as="geometry">
            <mxPoint x="402.5" y="150" as="sourcePoint" />
            <mxPoint x="412.5" y="230" as="targetPoint" />
          </mxGeometry>
        </mxCell>
        <mxCell id="T5i98AoBgZPl8uVs_3dz-7" value="" style="rhombus;whiteSpace=wrap;html=1;" parent="1" vertex="1">
          <mxGeometry x="330" y="230" width="165" height="80" as="geometry" />
        </mxCell>
        <mxCell id="T5i98AoBgZPl8uVs_3dz-8" value="Year Divisible by 4?" style="text;strokeColor=none;align=center;fillColor=none;html=1;verticalAlign=middle;whiteSpace=wrap;rounded=0;" parent="1" vertex="1">
          <mxGeometry x="352.5" y="255" width="120" height="30" as="geometry" />
        </mxCell>
        <mxCell id="T5i98AoBgZPl8uVs_3dz-14" value="" style="endArrow=classic;html=1;rounded=0;exitX=0;exitY=0.5;exitDx=0;exitDy=0;" parent="1" source="T5i98AoBgZPl8uVs_3dz-7" edge="1">
          <mxGeometry relative="1" as="geometry">
            <mxPoint x="290" y="310" as="sourcePoint" />
            <mxPoint x="210" y="400" as="targetPoint" />
            <Array as="points">
              <mxPoint x="210" y="320" />
            </Array>
          </mxGeometry>
        </mxCell>
        <mxCell id="T5i98AoBgZPl8uVs_3dz-15" value="No" style="edgeLabel;resizable=0;html=1;;align=center;verticalAlign=middle;fontSize=15;" parent="T5i98AoBgZPl8uVs_3dz-14" connectable="0" vertex="1">
          <mxGeometry relative="1" as="geometry" />
        </mxCell>
        <mxCell id="T5i98AoBgZPl8uVs_3dz-16" value="" style="rounded=1;whiteSpace=wrap;html=1;" parent="1" vertex="1">
          <mxGeometry x="150" y="400" width="120" height="60" as="geometry" />
        </mxCell>
        <mxCell id="T5i98AoBgZPl8uVs_3dz-17" value="Not a Leap Year&amp;nbsp;" style="text;strokeColor=none;align=center;fillColor=none;html=1;verticalAlign=middle;whiteSpace=wrap;rounded=0;" parent="1" vertex="1">
          <mxGeometry x="180" y="415" width="60" height="30" as="geometry" />
        </mxCell>
        <mxCell id="T5i98AoBgZPl8uVs_3dz-18" value="" style="endArrow=classic;html=1;rounded=0;exitX=1;exitY=0.5;exitDx=0;exitDy=0;" parent="1" source="T5i98AoBgZPl8uVs_3dz-7" edge="1">
          <mxGeometry relative="1" as="geometry">
            <mxPoint x="500" y="270" as="sourcePoint" />
            <mxPoint x="610" y="410" as="targetPoint" />
            <Array as="points">
              <mxPoint x="610" y="330" />
            </Array>
          </mxGeometry>
        </mxCell>
        <mxCell id="T5i98AoBgZPl8uVs_3dz-19" value="Yes" style="edgeLabel;resizable=0;html=1;;align=center;verticalAlign=middle;fontSize=15;" parent="T5i98AoBgZPl8uVs_3dz-18" connectable="0" vertex="1">
          <mxGeometry relative="1" as="geometry" />
        </mxCell>
        <mxCell id="T5i98AoBgZPl8uVs_3dz-22" value="" style="rhombus;whiteSpace=wrap;html=1;" parent="1" vertex="1">
          <mxGeometry x="530" y="410" width="165" height="80" as="geometry" />
        </mxCell>
        <mxCell id="T5i98AoBgZPl8uVs_3dz-24" value="Divisible by 100?" style="text;strokeColor=none;align=center;fillColor=none;html=1;verticalAlign=middle;whiteSpace=wrap;rounded=0;" parent="1" vertex="1">
          <mxGeometry x="582.5" y="435" width="60" height="30" as="geometry" />
        </mxCell>
        <mxCell id="T5i98AoBgZPl8uVs_3dz-25" value="" style="endArrow=classic;html=1;rounded=0;exitX=1;exitY=0.5;exitDx=0;exitDy=0;" parent="1" edge="1">
          <mxGeometry relative="1" as="geometry">
            <mxPoint x="610" y="490" as="sourcePoint" />
            <mxPoint x="725" y="640" as="targetPoint" />
            <Array as="points">
              <mxPoint x="725" y="550" />
            </Array>
          </mxGeometry>
        </mxCell>
        <mxCell id="T5i98AoBgZPl8uVs_3dz-26" value="Yes" style="edgeLabel;resizable=0;html=1;;align=center;verticalAlign=middle;fontSize=15;" parent="T5i98AoBgZPl8uVs_3dz-25" connectable="0" vertex="1">
          <mxGeometry relative="1" as="geometry" />
        </mxCell>
        <mxCell id="T5i98AoBgZPl8uVs_3dz-27" value="" style="endArrow=classic;html=1;rounded=0;exitX=1;exitY=0.5;exitDx=0;exitDy=0;" parent="1" edge="1">
          <mxGeometry relative="1" as="geometry">
            <mxPoint x="615" y="490" as="sourcePoint" />
            <mxPoint x="495" y="630" as="targetPoint" />
            <Array as="points">
              <mxPoint x="495" y="550" />
            </Array>
          </mxGeometry>
        </mxCell>
        <mxCell id="T5i98AoBgZPl8uVs_3dz-28" value="No" style="edgeLabel;resizable=0;html=1;;align=center;verticalAlign=middle;fontSize=15;" parent="T5i98AoBgZPl8uVs_3dz-27" connectable="0" vertex="1">
          <mxGeometry relative="1" as="geometry" />
        </mxCell>
        <mxCell id="T5i98AoBgZPl8uVs_3dz-29" value="" style="rhombus;whiteSpace=wrap;html=1;" parent="1" vertex="1">
          <mxGeometry x="642.5" y="640" width="165" height="80" as="geometry" />
        </mxCell>
        <mxCell id="T5i98AoBgZPl8uVs_3dz-30" value="Divisible by 400?" style="text;strokeColor=none;align=center;fillColor=none;html=1;verticalAlign=middle;whiteSpace=wrap;rounded=0;" parent="1" vertex="1">
          <mxGeometry x="695" y="665" width="60" height="30" as="geometry" />
        </mxCell>
        <mxCell id="T5i98AoBgZPl8uVs_3dz-31" value="" style="rounded=1;whiteSpace=wrap;html=1;" parent="1" vertex="1">
          <mxGeometry x="442.5" y="630" width="120" height="60" as="geometry" />
        </mxCell>
        <mxCell id="T5i98AoBgZPl8uVs_3dz-32" value="Leap Year" style="text;strokeColor=none;align=center;fillColor=none;html=1;verticalAlign=middle;whiteSpace=wrap;rounded=0;" parent="1" vertex="1">
          <mxGeometry x="472.5" y="645" width="60" height="30" as="geometry" />
        </mxCell>
        <mxCell id="T5i98AoBgZPl8uVs_3dz-33" value="" style="endArrow=classic;html=1;rounded=0;entryX=0.673;entryY=0.076;entryDx=0;entryDy=0;entryPerimeter=0;" parent="1" target="T5i98AoBgZPl8uVs_3dz-35" edge="1">
          <mxGeometry relative="1" as="geometry">
            <mxPoint x="720" y="760" as="sourcePoint" />
            <mxPoint x="790" y="840" as="targetPoint" />
            <Array as="points">
              <mxPoint x="800" y="760" />
            </Array>
          </mxGeometry>
        </mxCell>
        <mxCell id="T5i98AoBgZPl8uVs_3dz-34" value="Yes" style="edgeLabel;resizable=0;html=1;;align=center;verticalAlign=middle;fontSize=15;" parent="T5i98AoBgZPl8uVs_3dz-33" connectable="0" vertex="1">
          <mxGeometry relative="1" as="geometry" />
        </mxCell>
        <mxCell id="T5i98AoBgZPl8uVs_3dz-35" value="" style="rounded=1;whiteSpace=wrap;html=1;" parent="1" vertex="1">
          <mxGeometry x="720" y="840" width="120" height="60" as="geometry" />
        </mxCell>
        <mxCell id="T5i98AoBgZPl8uVs_3dz-36" value="Leap Year" style="text;strokeColor=none;align=center;fillColor=none;html=1;verticalAlign=middle;whiteSpace=wrap;rounded=0;" parent="1" vertex="1">
          <mxGeometry x="755" y="855" width="60" height="30" as="geometry" />
        </mxCell>
        <mxCell id="T5i98AoBgZPl8uVs_3dz-37" value="" style="endArrow=classic;html=1;rounded=0;entryX=0.656;entryY=0.076;entryDx=0;entryDy=0;entryPerimeter=0;" parent="1" target="T5i98AoBgZPl8uVs_3dz-40" edge="1">
          <mxGeometry relative="1" as="geometry">
            <mxPoint x="720" y="760" as="sourcePoint" />
            <mxPoint x="500" y="840" as="targetPoint" />
            <Array as="points">
              <mxPoint x="620" y="760" />
            </Array>
          </mxGeometry>
        </mxCell>
        <mxCell id="T5i98AoBgZPl8uVs_3dz-38" value="No" style="edgeLabel;resizable=0;html=1;;align=center;verticalAlign=middle;fontSize=15;" parent="T5i98AoBgZPl8uVs_3dz-37" connectable="0" vertex="1">
          <mxGeometry relative="1" as="geometry" />
        </mxCell>
        <mxCell id="T5i98AoBgZPl8uVs_3dz-40" value="" style="rounded=1;whiteSpace=wrap;html=1;" parent="1" vertex="1">
          <mxGeometry x="540" y="840" width="120" height="60" as="geometry" />
        </mxCell>
        <mxCell id="T5i98AoBgZPl8uVs_3dz-41" value="Not a leap Year" style="text;strokeColor=none;align=center;fillColor=none;html=1;verticalAlign=middle;whiteSpace=wrap;rounded=0;" parent="1" vertex="1">
          <mxGeometry x="570" y="855" width="60" height="30" as="geometry" />
        </mxCell>
        <mxCell id="T5i98AoBgZPl8uVs_3dz-42" value="" style="endArrow=none;html=1;rounded=0;" parent="1" edge="1">
          <mxGeometry width="50" height="50" relative="1" as="geometry">
            <mxPoint x="724.5" y="760" as="sourcePoint" />
            <mxPoint x="724.5" y="720" as="targetPoint" />
          </mxGeometry>
        </mxCell>
      </root>
    </mxGraphModel>
  </diagram>
</mxfile>
